<svg width="33" height="30" viewBox="0 0 33 30" fill="none" xmlns="http://www.w3.org/2000/svg">
<path d="M32.3334 0V17.8334C32.3334 20.9633 31.3401 21.5233 29.6535 23.8934L29.6667 2.66667H14.5C7.97336 2.66667 2.66667 7.97676 2.66667 14.5001V27.3333H17.834C19.2753 27.3355 20.7047 27.0722 22.0507 26.5567V29.3734C20.6839 29.7898 19.2628 30.0009 17.834 30H0V14.5002C0 6.49357 6.49004 0.000846269 14.5 0.000846269L32.3334 0ZM14.8655 24.6124V5.72365H13.7196C9.02016 5.72365 5.19707 9.54689 5.19707 14.2461V24.6127H7.66689L7.67253 14.2461C7.67253 11.3687 9.69285 8.95409 12.3894 8.3465L12.3839 24.6127L14.8655 24.6124ZM26.993 14.2467C26.993 9.54675 23.1696 5.72337 18.4697 5.72337H17.3268V24.6134H19.8067L19.8001 8.34664C22.4968 8.95339 24.5168 11.3701 24.5168 14.2467L24.5201 28.3667C25.3978 27.9104 26.2265 27.3653 26.993 26.74V14.2467Z" fill="url(#paint0_linear_53:380)"/>
<defs>
<linearGradient id="paint0_linear_53:380" x1="24.0499" y1="28.6542" x2="8.28219" y2="1.34372" gradientUnits="userSpaceOnUse">
<stop stop-color="#05D0C2"/>
<stop offset="0.54" stop-color="#2ECB84"/>
<stop offset="1" stop-color="#8CE01D"/>
</linearGradient>
</defs>
</svg>
