<svg width="82" height="16" viewBox="0 0 82 16" fill="none" xmlns="http://www.w3.org/2000/svg">
<path d="M0.334003 0.112305H2.31707L6.62111 12.7996C8.04058 8.63058 9.55049 4.28089 10.948 0.112305H12.931V15.8874H11.128V4.98099C9.93467 8.5192 8.627 12.3951 7.43217 15.8887H5.78723L2.15837 5.06997V15.8874H0.333374L0.334003 0.112305Z" fill="white"/>
<path d="M19.8044 0.112305V11.4253C19.8044 13.3636 20.5708 14.3099 22.5765 14.3099C24.5822 14.3099 25.4157 13.3636 25.4157 11.4253V0.112305H27.2415V11.4253C27.2415 14.6704 25.4157 15.9999 22.5765 15.9999C19.7374 15.9999 17.9794 14.6708 17.9794 11.4253V0.112305H19.8044Z" fill="white"/>
<path d="M33.957 0.112305V11.4253C33.957 13.3636 34.7232 14.3099 36.7291 14.3099C38.735 14.3099 39.5681 13.3636 39.5681 11.4253V0.112305H41.3939V11.4253C41.3939 14.6704 39.5681 15.9999 36.7291 15.9999C33.8902 15.9999 32.1318 14.6708 32.1318 11.4253V0.112305H33.957Z" fill="white"/>
<path d="M45.382 0.112305H53.7204V1.80268H50.4523V15.8874H48.6273V1.80268H45.3822L45.382 0.112305Z" fill="white"/>
<path d="M62.2609 0C66.7459 0 67.3543 3.60582 67.3543 8.00031C67.3543 12.3948 66.7459 16 62.2609 16C57.776 16 57.2363 12.3946 57.2363 8.00031C57.2363 3.60603 57.777 0 62.2609 0ZM62.2609 14.31C65.192 14.31 65.5291 11.8312 65.5291 8.00031C65.5291 4.16942 65.1912 1.69038 62.2609 1.69038C59.3307 1.69038 59.0613 4.16942 59.0613 8.00031C59.0613 11.8312 59.3316 14.31 62.2609 14.31Z" fill="white"/>
<path d="M71.839 10.8392H73.6413V11.5835C73.6413 13.0258 74.4752 14.31 76.8864 14.31C79.2302 14.31 79.5233 12.7555 79.5233 11.9891C79.5233 10.2537 77.9906 9.64526 76.3457 9.01404C74.273 8.20297 72.0636 7.34627 72.0636 4.23684C72.0636 3.04223 72.7402 0 76.6836 0C80.4925 0 81.1237 3.17747 81.1237 4.32644V5.04812H79.2979V4.32644C79.2979 2.86217 78.4638 1.69038 76.6836 1.69038C74.9936 1.69038 73.8894 2.70432 73.8894 4.23684C73.8894 6.03923 75.467 6.67024 77.1345 7.30147C79.1852 8.09055 81.3481 8.9238 81.3481 11.9891C81.3481 13.8817 80.3342 16 76.8862 16C71.9281 16 71.8385 12.2139 71.8385 11.5825L71.839 10.8392Z" fill="white"/>
</svg>
