<svg width="24" height="24" viewBox="0 0 24 24" fill="none" xmlns="http://www.w3.org/2000/svg">
<path fill-rule="evenodd" clip-rule="evenodd" d="M11.9999 12.0001C11.7729 12.0001 11.5449 11.9231 11.3599 11.7681L5.3599 6.7681C4.9359 6.4141 4.8789 5.7841 5.2319 5.3601C5.5859 4.9351 6.2149 4.8791 6.6399 5.2321L12.0109 9.7071L17.3729 5.3931C17.8029 5.0471 18.4339 5.1151 18.7789 5.5451C19.1259 5.9751 19.0569 6.6041 18.6269 6.9511L12.6269 11.7791C12.4439 11.9261 12.2219 12.0001 11.9999 12.0001ZM12.011 16.7076L17.373 12.3926C17.803 12.0476 18.434 12.1156 18.779 12.5446C19.125 12.9756 19.057 13.6046 18.627 13.9516L12.627 18.7796C12.444 18.9266 12.222 18.9996 12 18.9996C11.772 18.9996 11.545 18.9226 11.36 18.7676L5.36 13.7676C4.935 13.4146 4.878 12.7846 5.232 12.3596C5.585 11.9356 6.215 11.8776 6.64 12.2316L12.011 16.7076Z" fill="#75A6D7"/>
</svg>
