<svg width="24" height="24" viewBox="0 0 24 24" fill="none" xmlns="http://www.w3.org/2000/svg">
<path fill-rule="evenodd" clip-rule="evenodd" d="M14 5.89899L8.899 9.39699C8.732 9.50999 8.535 9.57199 8.333 9.57199H4V14.429H8.333C8.535 14.429 8.732 14.491 8.899 14.604L14 18.102V5.89899ZM16 4.00099V20.001C16 20.372 15.794 20.712 15.466 20.885C15.32 20.962 15.16 21.001 15 21.001C14.802 21.001 14.604 20.942 14.435 20.826L8.023 16.429H3C2.448 16.429 2 15.982 2 15.429V8.57199C2 8.01899 2.448 7.57199 3 7.57199H8.023L14.435 3.17499C14.741 2.96499 15.138 2.94199 15.466 3.11599C15.794 3.28899 16 3.62899 16 4.00099ZM19.779 15.628C19.582 15.873 19.292 16.001 19 16.001C18.779 16.001 18.558 15.928 18.373 15.78C17.943 15.433 17.875 14.804 18.221 14.374C19.256 13.087 19.256 10.914 18.221 9.62799C17.875 9.19699 17.943 8.56799 18.373 8.22099C18.803 7.87699 19.433 7.94399 19.779 8.37399C21.416 10.408 21.416 13.593 19.779 15.628Z" fill="#75A6D7"/>
</svg>
