<svg width="20" height="20" viewBox="0 0 20 20" fill="none" xmlns="http://www.w3.org/2000/svg">
<g clip-path="url(#clip0_945:161)">
<path d="M10.0637 2.49878H10.175C11.2025 2.50253 16.4088 2.54003 17.8125 2.91753C18.2369 3.03274 18.6236 3.25731 18.9339 3.56879C19.2443 3.88027 19.4675 4.26776 19.5812 4.69253C19.7075 5.16753 19.7962 5.79628 19.8563 6.44503L19.8688 6.57503L19.8962 6.90003L19.9062 7.03003C19.9875 8.17253 19.9975 9.24253 19.9987 9.47628V9.57003C19.9975 9.81253 19.9862 10.955 19.8962 12.145L19.8862 12.2763L19.875 12.4063C19.8125 13.1213 19.72 13.8313 19.5812 14.3538C19.4679 14.7787 19.2448 15.1664 18.9344 15.4779C18.6239 15.7895 18.237 16.0139 17.8125 16.1288C16.3625 16.5188 10.8512 16.5463 10.0875 16.5475H9.91C9.52375 16.5475 7.92625 16.54 6.25125 16.4825L6.03875 16.475L5.93 16.47L5.71625 16.4613L5.5025 16.4525C4.115 16.3913 2.79375 16.2925 2.185 16.1275C1.76061 16.0128 1.37383 15.7885 1.06341 15.4772C0.752979 15.1659 0.529809 14.7785 0.41625 14.3538C0.2775 13.8325 0.185 13.1213 0.1225 12.4063L0.1125 12.275L0.1025 12.145C0.0408095 11.298 0.00662483 10.4492 0 9.60003L0 9.44628C0.0025 9.17753 0.0125 8.24878 0.08 7.22378L0.08875 7.09503L0.0925 7.03003L0.1025 6.90003L0.13 6.57503L0.1425 6.44503C0.2025 5.79628 0.29125 5.16628 0.4175 4.69253C0.530867 4.26759 0.753953 3.87992 1.06439 3.56838C1.37483 3.25685 1.76171 3.03239 2.18625 2.91753C2.795 2.75503 4.11625 2.65503 5.50375 2.59253L5.71625 2.58378L5.93125 2.57628L6.03875 2.57253L6.2525 2.56378C7.44213 2.5255 8.63226 2.50425 9.8225 2.50003H10.0637V2.49878ZM8 6.51128V12.5338L13.1962 9.52378L8 6.51128Z" fill="#A6ADB5"/>
</g>
<defs>
<clipPath id="clip0_945:161">
<rect width="20" height="20" fill="white"/>
</clipPath>
</defs>
</svg>
