<svg width="24" height="24" viewBox="0 0 24 24" fill="none" xmlns="http://www.w3.org/2000/svg">
<path fill-rule="evenodd" clip-rule="evenodd" d="M13 18.2495V14.1785L15.467 16.5575L13 18.2495ZM13 5.7605L15.497 7.4935L13 9.8505V5.7605ZM13.629 12.0065L17.644 8.2165C17.895 7.9785 18.023 7.6465 17.997 7.3045C17.97 6.9615 17.792 6.6515 17.507 6.4545L12.833 3.2105C12.474 2.9585 12.008 2.9305 11.618 3.1335C11.237 3.3325 11 3.7205 11 4.1455V10.3515L7.807 6.3745C7.46 5.9425 6.832 5.8745 6.401 6.2205C5.97 6.5655 5.901 7.1955 6.247 7.6255L9.721 11.9525L6.216 16.3795C5.873 16.8125 5.946 17.4405 6.379 17.7845C6.563 17.9295 6.782 17.9995 7 17.9995C7.294 17.9995 7.586 17.8705 7.784 17.6205L11 13.5595V19.8535C11 20.2775 11.235 20.6645 11.613 20.8645C11.787 20.9555 11.975 21.0005 12.163 21.0005C12.395 21.0005 12.626 20.9315 12.827 20.7945L17.469 17.6085C17.754 17.4125 17.934 17.1035 17.961 16.7615C17.989 16.4205 17.863 16.0885 17.616 15.8515L13.629 12.0065Z" fill="#75A6D7"/>
</svg>
