<svg width="24" height="24" viewBox="0 0 24 24" fill="none" xmlns="http://www.w3.org/2000/svg">
<path fill-rule="evenodd" clip-rule="evenodd" d="M16.0557 10.6416L13.3597 7.94559L15.2717 6.03459L17.9657 8.72859L16.0557 10.6416ZM9.0787 17.6246L6.1027 17.8956L6.3667 14.9396L11.9457 9.35959L14.6417 12.0556L9.0787 17.6246ZM19.4027 7.33659L16.6627 4.59759C15.8957 3.82959 14.6767 3.80159 13.9487 4.52959L11.9457 6.53159L10.7067 5.29259C10.3167 4.90259 9.6837 4.90259 9.2927 5.29259C8.9027 5.68359 8.9027 6.31659 9.2927 6.70659L10.5317 7.94559L4.9517 13.5256C4.6267 13.8506 4.4247 14.2826 4.3827 14.7396L4.0037 18.9096C3.9777 19.2046 4.0827 19.4966 4.2927 19.7066C4.4817 19.8956 4.7367 19.9996 4.9997 19.9996C5.0307 19.9996 5.0607 19.9986 5.0907 19.9956L9.2607 19.6176C9.7177 19.5756 10.1497 19.3726 10.4747 19.0476L16.0547 13.4686L17.2927 14.7066C17.4887 14.9026 17.7437 14.9996 17.9997 14.9996C18.2557 14.9996 18.5117 14.9026 18.7067 14.7066C19.0977 14.3166 19.0977 13.6836 18.7067 13.2926L17.4687 12.0546L19.4707 10.0516C20.2007 9.32259 20.1697 8.10459 19.4027 7.33659Z" fill="#75A6D7"/>
</svg>
