<svg width="24" height="24" viewBox="0 0 24 24" fill="none" xmlns="http://www.w3.org/2000/svg">
<path fill-rule="evenodd" clip-rule="evenodd" d="M17.056 5L18.944 5C19.527 5 20 5.473 20 6.056L20 13.444C20 14.027 19.527 14.5 18.944 14.5L17.056 14.5C16.473 14.5 16 14.027 16 13.444L16 6.056C16 5.473 16.473 5 17.056 5V5Z" stroke="#A6ADB5" stroke-width="1.5" stroke-linecap="round" stroke-linejoin="round"/>
<path d="M16 13.4265L12.351 18.1775C11.672 19.0625 10.346 19.0845 9.63697 18.2235V18.2235C9.37197 17.9025 9.22797 17.4985 9.22797 17.0825L9.22797 13.8115L6.13197 13.8115C5.53097 13.8115 4.96997 13.5115 4.63597 13.0125L4.30697 12.5215C4.01197 12.0805 3.92597 11.5315 4.07297 11.0225L5.43197 6.30047C5.65397 5.52947 6.35897 4.99847 7.16097 4.99847L13.45 4.99847C13.95 4.99847 14.428 5.20647 14.768 5.57247L16 6.89847" stroke="#A6ADB5" stroke-width="1.5" stroke-linecap="round" stroke-linejoin="round"/>
</svg>
