<svg width="24" height="24" viewBox="0 0 24 24" fill="none" xmlns="http://www.w3.org/2000/svg">
<path fill-rule="evenodd" clip-rule="evenodd" d="M9.69821 14L10.4272 10H14.3022L13.5732 14H9.69821ZM20.0002 14H15.6982L16.4272 10H20.0002C20.5502 10 21.0002 9.55 21.0002 9C21.0002 8.45 20.5502 8 20.0002 8H16.7902L17.4842 4.189C17.5842 3.641 17.2022 3.112 16.6352 3.016C16.0682 2.919 15.5232 3.289 15.4232 3.838L14.6652 8H10.7902L11.4842 4.189C11.5842 3.641 11.2022 3.112 10.6352 3.016C10.0682 2.919 9.52321 3.289 9.42321 3.838L8.66521 8H4.00021C3.45021 8 3.00021 8.45 3.00021 9C3.00021 9.55 3.45021 10 4.00021 10H8.30221L7.57321 14H4.00021C3.45021 14 3.00021 14.45 3.00021 15C3.00021 15.55 3.45021 16 4.00021 16H7.20921L6.51521 19.811C6.41621 20.359 6.79821 20.888 7.36521 20.984C7.93121 21.081 8.47721 20.711 8.57621 20.162L9.33421 16H13.2092L12.5152 19.811C12.4162 20.359 12.7982 20.888 13.3652 20.984C13.9312 21.081 14.4772 20.711 14.5762 20.162L15.3342 16H20.0002C20.5502 16 21.0002 15.55 21.0002 15C21.0002 14.45 20.5502 14 20.0002 14Z" fill="#75A6D7"/>
</svg>
