<svg width="24" height="24" viewBox="0 0 24 24" fill="none" xmlns="http://www.w3.org/2000/svg">
<path fill-rule="evenodd" clip-rule="evenodd" d="M6.94397 19H5.05597C4.47297 19 3.99997 18.527 3.99997 17.944V10.556C3.99997 9.973 4.47297 9.5 5.05597 9.5H6.94397C7.52697 9.5 7.99997 9.973 7.99997 10.556V17.944C7.99997 18.527 7.52697 19 6.94397 19V19Z" stroke="#A6ADB5" stroke-width="1.5" stroke-linecap="round" stroke-linejoin="round"/>
<path d="M8.00003 10.5735L11.649 5.82253C12.328 4.93753 13.654 4.91553 14.363 5.77653V5.77653C14.628 6.09753 14.772 6.50153 14.772 6.91753V10.1885H17.868C18.469 10.1885 19.03 10.4885 19.364 10.9875L19.693 11.4785C19.988 11.9195 20.074 12.4685 19.927 12.9775L18.568 17.6995C18.346 18.4705 17.641 19.0015 16.839 19.0015H10.55C10.05 19.0015 9.57203 18.7935 9.23203 18.4275L8.00003 17.1015" stroke="#A6ADB5" stroke-width="1.5" stroke-linecap="round" stroke-linejoin="round"/>
</svg>
