<svg width="39" height="19" viewBox="0 0 39 19" fill="none" xmlns="http://www.w3.org/2000/svg">
<rect width="39" height="19" rx="5" fill="white"/>
<g clip-path="url(#clip0_101:51)">
<path d="M16.1667 14C18.744 14 20.8333 11.9853 20.8333 9.5C20.8333 7.01472 18.744 5 16.1667 5C13.5893 5 11.5 7.01472 11.5 9.5C11.5 11.9853 13.5893 14 16.1667 14Z" fill="#EA001B"/>
<path d="M22.8332 14C25.4105 14 27.4998 11.9853 27.4998 9.5C27.4998 7.01472 25.4105 5 22.8332 5C20.2558 5 18.1665 7.01472 18.1665 9.5C18.1665 11.9853 20.2558 14 22.8332 14Z" fill="#FFA200" fill-opacity="0.8"/>
</g>
<defs>
<clipPath id="clip0_101:51">
<rect width="16" height="9" fill="white" transform="translate(11.5 5)"/>
</clipPath>
</defs>
</svg>
