<svg width="39" height="19" viewBox="0 0 39 19" fill="none" xmlns="http://www.w3.org/2000/svg">
<rect width="39" height="19" rx="5" fill="white"/>
<path d="M19.9981 7.8772C19.9816 9.13093 21.1607 9.83053 22.0489 10.2465C22.9615 10.6733 23.2681 10.947 23.2645 11.3287C23.2577 11.9128 22.5365 12.1706 21.8617 12.1806C20.6844 12.1981 19.9998 11.8751 19.4556 11.6308L19.0315 13.5381C19.5775 13.7799 20.5885 13.9907 21.6369 14C24.098 14 25.708 12.8325 25.7168 11.0223C25.7264 8.72496 22.4103 8.5978 22.433 7.57095C22.4408 7.25958 22.7499 6.92731 23.4273 6.84283C23.7627 6.80015 24.6883 6.76749 25.7377 7.23193L26.1496 5.38659C25.5852 5.18911 24.8599 5 23.9568 5C21.6404 5 20.0112 6.18341 19.9981 7.8772ZM30.1074 5.15895C29.658 5.15895 29.2793 5.41087 29.1103 5.79747L25.5949 13.8645H28.0541L28.5435 12.5647H31.5486L31.8325 13.8645H34L32.1085 5.15895H30.1074ZM30.4515 7.51063L31.1612 10.7796H29.2175L30.4515 7.51063ZM17.0164 5.15906L15.078 13.8643H17.4214L19.359 5.15884H17.0164V5.15906ZM13.5497 5.15884L11.1105 11.0843L10.1238 6.04612C10.0081 5.48371 9.55085 5.15895 9.04312 5.15895H5.05585L5 5.41174C5.81857 5.58245 6.74861 5.85778 7.31207 6.15238C7.6569 6.33234 7.75523 6.48966 7.86851 6.9173L9.73731 13.8645H12.2137L16.0105 5.15895H13.5497" fill="url(#paint0_linear_101:42)"/>
<defs>
<linearGradient id="paint0_linear_101:42" x1="18.3325" y1="14.1805" x2="18.5828" y2="4.93685" gradientUnits="userSpaceOnUse">
<stop stop-color="#222357"/>
<stop offset="1" stop-color="#254AA5"/>
</linearGradient>
</defs>
</svg>
