<svg width="24" height="24" viewBox="0 0 24 24" fill="none" xmlns="http://www.w3.org/2000/svg">
<path fill-rule="evenodd" clip-rule="evenodd" d="M15.5078 17.0063C14.6848 17.0063 14.0158 16.3373 14.0158 15.5143C14.0158 14.6913 14.6848 14.0223 15.5078 14.0223C16.2288 14.0223 16.8298 14.5343 16.9698 15.2133V15.2143C16.9888 15.3113 16.9998 15.4113 16.9998 15.5143C16.9998 16.3373 16.3308 17.0063 15.5078 17.0063ZM6.5358 19.0003C5.7128 19.0003 5.0438 18.3303 5.0438 17.5073C5.0438 16.6853 5.7128 16.0153 6.5358 16.0153C7.2558 16.0153 7.8578 16.5273 7.9978 17.2063V17.2093C8.0178 17.3053 8.0288 17.4053 8.0288 17.5073C8.0288 18.3303 7.3598 19.0003 6.5358 19.0003ZM18.9468 14.9923V4.0003C18.9468 3.6963 18.8098 3.4093 18.5728 3.2193C18.3358 3.0303 18.0248 2.9583 17.7308 3.0243L8.7588 5.0173C8.3008 5.1193 7.9758 5.5253 7.9758 5.9933V14.3343C7.5348 14.1343 7.0508 14.0153 6.5358 14.0153C4.6108 14.0153 3.0438 15.5823 3.0438 17.5073C3.0438 19.4333 4.6108 21.0003 6.5358 21.0003C8.4618 21.0003 10.0288 19.4333 10.0288 17.5073C10.0288 17.3293 10.0018 17.1573 9.9758 16.9853V6.7963L16.9468 5.2463V12.3403C16.5068 12.1403 16.0228 12.0223 15.5078 12.0223C13.5818 12.0223 12.0158 13.5883 12.0158 15.5143C12.0158 17.4403 13.5818 19.0063 15.5078 19.0063C17.4338 19.0063 18.9998 17.4403 18.9998 15.5143C18.9998 15.3353 18.9738 15.1643 18.9468 14.9923Z" fill="#75A6D7"/>
</svg>
