<svg width="24" height="24" viewBox="0 0 24 24" fill="none" xmlns="http://www.w3.org/2000/svg">
<path fill-rule="evenodd" clip-rule="evenodd" d="M21.6829 10.326C21.6756 10.3419 21.6684 10.3578 21.6616 10.374C21.6547 10.3908 21.6493 10.4082 21.644 10.4257C21.6352 10.454 21.6265 10.4822 21.6116 10.507C21.582 10.556 21.5434 10.5972 21.5046 10.6385C21.4935 10.6502 21.4825 10.662 21.4716 10.674C21.4595 10.6865 21.4488 10.7003 21.4381 10.714C21.4232 10.7331 21.4082 10.7523 21.3896 10.768C21.3336 10.8137 21.2689 10.8455 21.2044 10.8772C21.1998 10.8795 21.1952 10.8817 21.1906 10.884C21.177 10.8906 21.164 10.8989 21.151 10.9073C21.1326 10.9191 21.1141 10.931 21.0936 10.938C20.9856 10.978 20.8706 11 20.7516 11C20.6976 11 20.6416 10.996 20.5866 10.986L16.3366 10.281C15.7916 10.191 15.4236 9.676 15.5136 9.131C15.6036 8.587 16.1176 8.214 16.6636 8.309L18.3076 8.581C17.0626 6.395 14.6856 5 12.0696 5C9.1106 5 6.5036 6.718 5.4266 9.375C5.2696 9.765 4.8946 10 4.4996 10C4.3746 10 4.2476 9.977 4.1246 9.927C3.6126 9.72 3.3656 9.137 3.5736 8.625C4.9576 5.208 8.2926 3 12.0696 3C15.4816 3 18.5826 4.87 20.1476 7.788L20.5166 5.815C20.6186 5.273 21.1426 4.914 21.6836 5.018C22.2266 5.119 22.5846 5.642 22.4826 6.185L21.7336 10.185C21.724 10.236 21.7035 10.281 21.6829 10.326ZM18.5735 14.6252C18.7805 14.1122 19.3645 13.8662 19.8755 14.0732C20.3875 14.2802 20.6345 14.8632 20.4265 15.3752C19.0425 18.7922 15.7075 21.0002 11.9305 21.0002C8.5185 21.0002 5.4175 19.1302 3.8525 16.2122L3.4825 18.1842C3.3935 18.6652 2.9735 19.0002 2.5005 19.0002C2.4395 19.0002 2.3775 18.9942 2.3155 18.9822C1.7725 18.8812 1.4155 18.3582 1.5175 17.8152L2.2665 13.8152C2.2741 13.7759 2.29094 13.7411 2.30784 13.706C2.31763 13.6858 2.32744 13.6655 2.3355 13.6442C2.34341 13.6243 2.35031 13.6037 2.35723 13.583C2.37219 13.5383 2.3872 13.4935 2.4125 13.4552C2.42726 13.4324 2.44656 13.4142 2.46597 13.3959C2.47813 13.3844 2.49033 13.3729 2.5015 13.3602C2.51031 13.35 2.51902 13.3397 2.52772 13.3295C2.57531 13.2734 2.62247 13.2178 2.6825 13.1772C2.6884 13.1729 2.69544 13.1703 2.7024 13.1678C2.70843 13.1656 2.7144 13.1634 2.7195 13.1602C2.8165 13.0972 2.9205 13.0482 3.0355 13.0232C3.04251 13.0216 3.0498 13.022 3.05707 13.0224C3.0633 13.0228 3.06951 13.0231 3.0755 13.0222C3.1855 13.0042 3.2965 12.9932 3.4135 13.0132L7.6635 13.7192C8.2085 13.8082 8.5765 14.3242 8.4865 14.8692C8.4055 15.3582 7.9815 15.7052 7.5005 15.7052C7.4465 15.7052 7.3915 15.7012 7.3365 15.6912L5.6925 15.4192C6.9375 17.6052 9.3145 19.0002 11.9305 19.0002C14.8895 19.0002 17.4965 17.2822 18.5735 14.6252Z" fill="#75A6D7"/>
</svg>
