<svg width="242" height="254" viewBox="0 0 242 254" fill="none" xmlns="http://www.w3.org/2000/svg">
<path d="M49.888 9.368H44.512L45.16 6.2H59.8L59.152 9.368H53.8L51.064 23H47.176L49.888 9.368ZM77.7799 6.2L74.4199 23H70.5319L71.8999 16.16H64.2919L62.9239 23H59.0119L62.3719 6.2H66.2839L64.9639 12.8H72.5719L73.8919 6.2H77.7799ZM90.8267 19.4H83.0027L80.8187 23H76.6667L87.5387 6.2H91.3787L95.5068 23H91.6187L90.8267 19.4ZM90.1787 16.448L88.7627 9.968L84.8027 16.448H90.1787ZM116.498 6.2L113.138 23H109.946L103.682 12.488L101.57 23H97.7297L101.09 6.2H104.306L110.57 16.736L112.658 6.2H116.498ZM127.865 13.976L133.697 23H129.329L125.009 16.424L122.297 18.824L121.457 23H117.593L120.953 6.2H124.817L123.281 13.904L131.993 6.2H136.697L127.865 13.976ZM152.331 17.168L151.179 23H147.291L148.467 17L144.147 6.2H148.035L151.035 13.688L157.059 6.2H161.067L152.331 17.168ZM167.799 23.288C166.119 23.288 164.663 22.984 163.431 22.376C162.199 21.768 161.255 20.912 160.599 19.808C159.943 18.704 159.615 17.432 159.615 15.992C159.615 14.088 160.047 12.376 160.911 10.856C161.791 9.32 163.015 8.112 164.583 7.232C166.167 6.352 167.975 5.912 170.007 5.912C171.687 5.912 173.143 6.216 174.375 6.824C175.607 7.432 176.551 8.288 177.207 9.392C177.863 10.496 178.191 11.768 178.191 13.208C178.191 15.112 177.751 16.832 176.871 18.368C176.007 19.888 174.783 21.088 173.199 21.968C171.631 22.848 169.831 23.288 167.799 23.288ZM168.135 19.976C169.367 19.976 170.447 19.68 171.375 19.088C172.303 18.496 173.015 17.704 173.511 16.712C174.007 15.72 174.255 14.624 174.255 13.424C174.255 12.144 173.855 11.128 173.055 10.376C172.255 9.608 171.127 9.224 169.671 9.224C168.439 9.224 167.359 9.52 166.431 10.112C165.503 10.704 164.791 11.496 164.295 12.488C163.799 13.48 163.551 14.576 163.551 15.776C163.551 17.056 163.951 18.08 164.751 18.848C165.551 19.6 166.679 19.976 168.135 19.976ZM187.737 23.288C185.625 23.288 183.969 22.768 182.769 21.728C181.569 20.672 180.969 19.232 180.969 17.408C180.969 16.88 181.033 16.28 181.161 15.608L183.033 6.2H186.945L185.073 15.536C184.977 16.064 184.929 16.536 184.929 16.952C184.929 17.96 185.201 18.72 185.745 19.232C186.305 19.728 187.113 19.976 188.169 19.976C189.353 19.976 190.297 19.624 191.001 18.92C191.705 18.216 192.217 17.088 192.537 15.536L194.409 6.2H198.225L196.329 15.776C195.305 20.784 192.441 23.288 187.737 23.288Z" fill="white"/>
<g filter="url(#filter0_dd_85:386)">
<path d="M26.1446 156.392V161H24.8326V156.376L20.3526 149.608H21.8886L25.5046 155.208L29.1206 149.608H30.6246L26.1446 156.392ZM33.701 161.112C32.9437 161.112 32.277 160.941 31.701 160.6C31.125 160.259 30.677 159.773 30.357 159.144C30.0477 158.515 29.893 157.779 29.893 156.936C29.893 156.093 30.0477 155.357 30.357 154.728C30.677 154.099 31.125 153.613 31.701 153.272C32.277 152.931 32.9437 152.76 33.701 152.76C34.4583 152.76 35.125 152.931 35.701 153.272C36.277 153.613 36.7197 154.099 37.029 154.728C37.349 155.357 37.509 156.093 37.509 156.936C37.509 157.779 37.349 158.515 37.029 159.144C36.7197 159.773 36.277 160.259 35.701 160.6C35.125 160.941 34.4583 161.112 33.701 161.112ZM33.701 160.04C34.501 160.04 35.1143 159.779 35.541 159.256C35.9677 158.723 36.181 157.949 36.181 156.936C36.181 155.955 35.9623 155.197 35.525 154.664C35.0877 154.12 34.4797 153.848 33.701 153.848C32.9117 153.848 32.2983 154.12 31.861 154.664C31.4237 155.197 31.205 155.955 31.205 156.936C31.205 157.949 31.4183 158.723 31.845 159.256C32.2823 159.779 32.901 160.04 33.701 160.04ZM46.2653 152.952V161H45.0013V159.608C44.7453 160.099 44.3879 160.472 43.9293 160.728C43.4706 160.984 42.9533 161.112 42.3773 161.112C41.4279 161.112 40.7079 160.845 40.2173 160.312C39.7266 159.779 39.4813 158.989 39.4813 157.944V152.952H40.7773V157.912C40.7773 158.637 40.9266 159.171 41.2253 159.512C41.5239 159.853 41.9773 160.024 42.5853 160.024C43.2999 160.024 43.8759 159.795 44.3133 159.336C44.7506 158.867 44.9693 158.253 44.9693 157.496V152.952H46.2653ZM52.5076 152.76C52.7743 152.76 53.0196 152.792 53.2436 152.856L53.2116 154.04C52.9663 153.955 52.6836 153.912 52.3636 153.912C51.585 153.912 51.0036 154.157 50.6196 154.648C50.2463 155.128 50.0596 155.715 50.0596 156.408V161H48.7636V155.208C48.7636 154.376 48.721 153.624 48.6356 152.952H49.8676L49.9956 154.44C50.1983 153.896 50.5236 153.48 50.9716 153.192C51.4196 152.904 51.9316 152.76 52.5076 152.76ZM62.0604 161.112C61.303 161.112 60.6364 160.941 60.0604 160.6C59.4844 160.259 59.0364 159.773 58.7164 159.144C58.407 158.515 58.2524 157.779 58.2524 156.936C58.2524 156.093 58.407 155.357 58.7164 154.728C59.0364 154.099 59.4844 153.613 60.0604 153.272C60.6364 152.931 61.303 152.76 62.0604 152.76C62.8177 152.76 63.4844 152.931 64.0604 153.272C64.6364 153.613 65.079 154.099 65.3884 154.728C65.7084 155.357 65.8684 156.093 65.8684 156.936C65.8684 157.779 65.7084 158.515 65.3884 159.144C65.079 159.773 64.6364 160.259 64.0604 160.6C63.4844 160.941 62.8177 161.112 62.0604 161.112ZM62.0604 160.04C62.8604 160.04 63.4737 159.779 63.9004 159.256C64.327 158.723 64.5404 157.949 64.5404 156.936C64.5404 155.955 64.3217 155.197 63.8844 154.664C63.447 154.12 62.839 153.848 62.0604 153.848C61.271 153.848 60.6577 154.12 60.2204 154.664C59.783 155.197 59.5644 155.955 59.5644 156.936C59.5644 157.949 59.7777 158.723 60.2044 159.256C60.6417 159.779 61.2604 160.04 62.0604 160.04ZM71.6326 152.76C71.8993 152.76 72.1446 152.792 72.3686 152.856L72.3366 154.04C72.0913 153.955 71.8086 153.912 71.4886 153.912C70.71 153.912 70.1286 154.157 69.7446 154.648C69.3713 155.128 69.1846 155.715 69.1846 156.408V161H67.8886V155.208C67.8886 154.376 67.846 153.624 67.7606 152.952H68.9926L69.1206 154.44C69.3233 153.896 69.6486 153.48 70.0966 153.192C70.5446 152.904 71.0566 152.76 71.6326 152.76ZM80.6173 149.224V161H79.3373V159.544C79.1026 160.045 78.7453 160.435 78.2653 160.712C77.7959 160.979 77.2466 161.112 76.6173 161.112C75.9133 161.112 75.2893 160.936 74.7453 160.584C74.2119 160.232 73.7959 159.741 73.4973 159.112C73.1986 158.472 73.0493 157.736 73.0493 156.904C73.0493 156.072 73.1933 155.347 73.4813 154.728C73.7799 154.099 74.2013 153.613 74.7453 153.272C75.2893 152.931 75.9133 152.76 76.6173 152.76C77.2466 152.76 77.7959 152.899 78.2653 153.176C78.7346 153.443 79.0866 153.821 79.3213 154.312V149.224H80.6173ZM76.8733 160.04C77.6626 160.04 78.2706 159.773 78.6973 159.24C79.1239 158.696 79.3373 157.928 79.3373 156.936C79.3373 155.955 79.1239 155.197 78.6973 154.664C78.2706 154.12 77.6626 153.848 76.8733 153.848C76.0839 153.848 75.4653 154.115 75.0173 154.648C74.5799 155.181 74.3613 155.933 74.3613 156.904C74.3613 157.896 74.5799 158.669 75.0173 159.224C75.4653 159.768 76.0839 160.04 76.8733 160.04ZM89.859 156.936H83.955C83.9657 157.96 84.2003 158.733 84.659 159.256C85.1283 159.779 85.8057 160.04 86.691 160.04C87.6297 160.04 88.4937 159.725 89.283 159.096L89.715 160.04C89.363 160.371 88.9097 160.632 88.355 160.824C87.811 161.016 87.251 161.112 86.675 161.112C85.4163 161.112 84.4297 160.744 83.715 160.008C83.0003 159.261 82.643 158.243 82.643 156.952C82.643 156.131 82.803 155.405 83.123 154.776C83.443 154.136 83.891 153.64 84.467 153.288C85.043 152.936 85.699 152.76 86.435 152.76C87.5017 152.76 88.339 153.112 88.947 153.816C89.555 154.509 89.859 155.469 89.859 156.696V156.936ZM86.451 153.768C85.779 153.768 85.2297 153.971 84.803 154.376C84.387 154.781 84.1203 155.352 84.003 156.088H88.691C88.627 155.331 88.403 154.755 88.019 154.36C87.6457 153.965 87.123 153.768 86.451 153.768ZM95.5701 152.76C95.8368 152.76 96.0821 152.792 96.3061 152.856L96.2741 154.04C96.0288 153.955 95.7461 153.912 95.4261 153.912C94.6475 153.912 94.0661 154.157 93.6821 154.648C93.3088 155.128 93.1221 155.715 93.1221 156.408V161H91.8261V155.208C91.8261 154.376 91.7835 153.624 91.6981 152.952H92.9301L93.0581 154.44C93.2608 153.896 93.5861 153.48 94.0341 153.192C94.4821 152.904 94.9941 152.76 95.5701 152.76ZM105.811 152.76C107.742 152.76 108.707 153.821 108.707 155.944V161H107.411V156.008C107.411 155.261 107.262 154.717 106.963 154.376C106.664 154.024 106.195 153.848 105.555 153.848C104.808 153.848 104.211 154.077 103.763 154.536C103.315 154.995 103.091 155.613 103.091 156.392V161H101.795V149.224H103.091V154.264C103.347 153.773 103.71 153.4 104.179 153.144C104.659 152.888 105.203 152.76 105.811 152.76ZM118.242 152.952V161H116.962V159.544C116.728 160.045 116.37 160.435 115.89 160.712C115.421 160.979 114.872 161.112 114.242 161.112C113.528 161.112 112.898 160.941 112.354 160.6C111.821 160.259 111.405 159.779 111.106 159.16C110.818 158.531 110.674 157.8 110.674 156.968C110.674 156.136 110.824 155.405 111.122 154.776C111.421 154.136 111.837 153.64 112.37 153.288C112.914 152.936 113.538 152.76 114.242 152.76C114.872 152.76 115.421 152.899 115.89 153.176C116.36 153.453 116.717 153.843 116.962 154.344V152.952H118.242ZM114.498 160.04C115.288 160.04 115.896 159.773 116.322 159.24C116.749 158.696 116.962 157.928 116.962 156.936C116.962 155.944 116.749 155.181 116.322 154.648C115.896 154.115 115.288 153.848 114.498 153.848C113.709 153.848 113.09 154.125 112.642 154.68C112.205 155.224 111.986 155.987 111.986 156.968C111.986 157.949 112.205 158.707 112.642 159.24C113.08 159.773 113.698 160.04 114.498 160.04ZM123.468 161.112C122.113 161.112 121.041 160.765 120.252 160.072L120.684 159.112C121.121 159.453 121.564 159.699 122.012 159.848C122.46 159.997 122.961 160.072 123.516 160.072C124.124 160.072 124.583 159.971 124.892 159.768C125.212 159.555 125.372 159.251 125.372 158.856C125.372 158.536 125.265 158.28 125.052 158.088C124.839 157.896 124.487 157.747 123.996 157.64L122.636 157.32C121.964 157.171 121.441 156.904 121.068 156.52C120.705 156.136 120.524 155.677 120.524 155.144C120.524 154.44 120.807 153.869 121.372 153.432C121.937 152.984 122.684 152.76 123.612 152.76C124.177 152.76 124.711 152.851 125.212 153.032C125.713 153.213 126.135 153.475 126.476 153.816L126.044 154.76C125.287 154.131 124.476 153.816 123.612 153.816C123.036 153.816 122.588 153.928 122.268 154.152C121.959 154.365 121.804 154.669 121.804 155.064C121.804 155.395 121.9 155.656 122.092 155.848C122.295 156.04 122.615 156.189 123.052 156.296L124.412 156.632C125.159 156.803 125.713 157.069 126.076 157.432C126.439 157.784 126.62 158.248 126.62 158.824C126.62 159.517 126.337 160.072 125.772 160.488C125.207 160.904 124.439 161.112 123.468 161.112ZM136.873 152.76C137.577 152.76 138.201 152.931 138.745 153.272C139.289 153.613 139.711 154.099 140.009 154.728C140.308 155.347 140.457 156.072 140.457 156.904C140.457 157.736 140.308 158.472 140.009 159.112C139.711 159.741 139.289 160.232 138.745 160.584C138.201 160.936 137.577 161.112 136.873 161.112C136.244 161.112 135.695 160.973 135.225 160.696C134.756 160.419 134.399 160.024 134.153 159.512V161H132.857V149.224H134.153V154.376C134.388 153.853 134.74 153.453 135.209 153.176C135.689 152.899 136.244 152.76 136.873 152.76ZM136.633 160.04C137.412 160.04 138.02 159.768 138.457 159.224C138.895 158.669 139.113 157.896 139.113 156.904C139.113 155.933 138.895 155.181 138.457 154.648C138.031 154.115 137.423 153.848 136.633 153.848C135.833 153.848 135.22 154.115 134.793 154.648C134.367 155.181 134.153 155.944 134.153 156.936C134.153 157.928 134.367 158.696 134.793 159.24C135.22 159.773 135.833 160.04 136.633 160.04ZM149.187 156.936H143.283C143.294 157.96 143.528 158.733 143.987 159.256C144.456 159.779 145.134 160.04 146.019 160.04C146.958 160.04 147.822 159.725 148.611 159.096L149.043 160.04C148.691 160.371 148.238 160.632 147.683 160.824C147.139 161.016 146.579 161.112 146.003 161.112C144.744 161.112 143.758 160.744 143.043 160.008C142.328 159.261 141.971 158.243 141.971 156.952C141.971 156.131 142.131 155.405 142.451 154.776C142.771 154.136 143.219 153.64 143.795 153.288C144.371 152.936 145.027 152.76 145.763 152.76C146.83 152.76 147.667 153.112 148.275 153.816C148.883 154.509 149.187 155.469 149.187 156.696V156.936ZM145.779 153.768C145.107 153.768 144.558 153.971 144.131 154.376C143.715 154.781 143.448 155.352 143.331 156.088H148.019C147.955 155.331 147.731 154.755 147.347 154.36C146.974 153.965 146.451 153.768 145.779 153.768ZM157.89 156.936H151.986C151.997 157.96 152.232 158.733 152.69 159.256C153.16 159.779 153.837 160.04 154.722 160.04C155.661 160.04 156.525 159.725 157.314 159.096L157.746 160.04C157.394 160.371 156.941 160.632 156.386 160.824C155.842 161.016 155.282 161.112 154.706 161.112C153.448 161.112 152.461 160.744 151.746 160.008C151.032 159.261 150.674 158.243 150.674 156.952C150.674 156.131 150.834 155.405 151.154 154.776C151.474 154.136 151.922 153.64 152.498 153.288C153.074 152.936 153.73 152.76 154.466 152.76C155.533 152.76 156.37 153.112 156.978 153.816C157.586 154.509 157.89 155.469 157.89 156.696V156.936ZM154.482 153.768C153.81 153.768 153.261 153.971 152.834 154.376C152.418 154.781 152.152 155.352 152.034 156.088H156.722C156.658 155.331 156.434 154.755 156.05 154.36C155.677 153.965 155.154 153.768 154.482 153.768ZM163.873 152.76C165.804 152.76 166.769 153.821 166.769 155.944V161H165.473V156.008C165.473 155.261 165.324 154.717 165.025 154.376C164.727 154.024 164.257 153.848 163.617 153.848C162.871 153.848 162.273 154.077 161.825 154.536C161.377 154.995 161.153 155.613 161.153 156.392V161H159.857V155.208C159.857 154.376 159.815 153.624 159.729 152.952H160.961L161.089 154.392C161.335 153.869 161.703 153.469 162.193 153.192C162.684 152.904 163.244 152.76 163.873 152.76ZM177.405 152.76C178.109 152.76 178.733 152.936 179.277 153.288C179.821 153.64 180.242 154.136 180.541 154.776C180.839 155.405 180.989 156.136 180.989 156.968C180.989 157.8 180.839 158.531 180.541 159.16C180.242 159.779 179.821 160.259 179.277 160.6C178.743 160.941 178.119 161.112 177.405 161.112C176.775 161.112 176.226 160.973 175.757 160.696C175.287 160.419 174.93 160.024 174.685 159.512V164.456H173.389V155.208C173.389 154.376 173.346 153.624 173.261 152.952H174.493L174.621 154.504C174.845 153.949 175.197 153.523 175.677 153.224C176.167 152.915 176.743 152.76 177.405 152.76ZM177.165 160.04C177.954 160.04 178.562 159.773 178.989 159.24C179.426 158.707 179.645 157.949 179.645 156.968C179.645 155.987 179.426 155.224 178.989 154.68C178.551 154.125 177.943 153.848 177.165 153.848C176.365 153.848 175.751 154.115 175.325 154.648C174.898 155.181 174.685 155.944 174.685 156.936C174.685 157.928 174.898 158.696 175.325 159.24C175.751 159.773 176.365 160.04 177.165 160.04ZM182.982 149.224H184.278V161H182.982V149.224ZM193.883 152.952V161H192.603V159.544C192.368 160.045 192.011 160.435 191.531 160.712C191.062 160.979 190.512 161.112 189.883 161.112C189.168 161.112 188.539 160.941 187.995 160.6C187.462 160.259 187.046 159.779 186.747 159.16C186.459 158.531 186.315 157.8 186.315 156.968C186.315 156.136 186.464 155.405 186.763 154.776C187.062 154.136 187.478 153.64 188.011 153.288C188.555 152.936 189.179 152.76 189.883 152.76C190.512 152.76 191.062 152.899 191.531 153.176C192 153.453 192.358 153.843 192.603 154.344V152.952H193.883ZM190.139 160.04C190.928 160.04 191.536 159.773 191.963 159.24C192.39 158.696 192.603 157.928 192.603 156.936C192.603 155.944 192.39 155.181 191.963 154.648C191.536 154.115 190.928 153.848 190.139 153.848C189.35 153.848 188.731 154.125 188.283 154.68C187.846 155.224 187.627 155.987 187.627 156.968C187.627 157.949 187.846 158.707 188.283 159.24C188.72 159.773 189.339 160.04 190.139 160.04ZM199.765 161.112C198.986 161.112 198.303 160.941 197.717 160.6C197.141 160.259 196.693 159.779 196.373 159.16C196.063 158.531 195.909 157.8 195.909 156.968C195.909 156.136 196.069 155.405 196.389 154.776C196.709 154.136 197.162 153.64 197.749 153.288C198.346 152.936 199.039 152.76 199.829 152.76C200.373 152.76 200.895 152.856 201.397 153.048C201.909 153.229 202.33 153.485 202.661 153.816L202.229 154.776C201.823 154.456 201.429 154.221 201.045 154.072C200.671 153.923 200.287 153.848 199.893 153.848C199.071 153.848 198.426 154.125 197.957 154.68C197.487 155.224 197.253 155.987 197.253 156.968C197.253 157.939 197.482 158.696 197.941 159.24C198.41 159.773 199.061 160.04 199.893 160.04C200.287 160.04 200.671 159.965 201.045 159.816C201.429 159.667 201.823 159.432 202.229 159.112L202.661 160.072C202.319 160.392 201.887 160.648 201.365 160.84C200.853 161.021 200.319 161.112 199.765 161.112ZM211.047 156.936H205.143C205.153 157.96 205.388 158.733 205.847 159.256C206.316 159.779 206.993 160.04 207.879 160.04C208.817 160.04 209.681 159.725 210.471 159.096L210.903 160.04C210.551 160.371 210.097 160.632 209.543 160.824C208.999 161.016 208.439 161.112 207.863 161.112C206.604 161.112 205.617 160.744 204.903 160.008C204.188 159.261 203.831 158.243 203.831 156.952C203.831 156.131 203.991 155.405 204.311 154.776C204.631 154.136 205.079 153.64 205.655 153.288C206.231 152.936 206.887 152.76 207.623 152.76C208.689 152.76 209.527 153.112 210.135 153.816C210.743 154.509 211.047 155.469 211.047 156.696V156.936ZM207.639 153.768C206.967 153.768 206.417 153.971 205.991 154.376C205.575 154.781 205.308 155.352 205.191 156.088H209.879C209.815 155.331 209.591 154.755 209.207 154.36C208.833 153.965 208.311 153.768 207.639 153.768ZM220.102 149.224V161H218.822V159.544C218.587 160.045 218.23 160.435 217.75 160.712C217.28 160.979 216.731 161.112 216.102 161.112C215.398 161.112 214.774 160.936 214.23 160.584C213.696 160.232 213.28 159.741 212.982 159.112C212.683 158.472 212.534 157.736 212.534 156.904C212.534 156.072 212.678 155.347 212.966 154.728C213.264 154.099 213.686 153.613 214.23 153.272C214.774 152.931 215.398 152.76 216.102 152.76C216.731 152.76 217.28 152.899 217.75 153.176C218.219 153.443 218.571 153.821 218.806 154.312V149.224H220.102ZM216.358 160.04C217.147 160.04 217.755 159.773 218.182 159.24C218.608 158.696 218.822 157.928 218.822 156.936C218.822 155.955 218.608 155.197 218.182 154.664C217.755 154.12 217.147 153.848 216.358 153.848C215.568 153.848 214.95 154.115 214.502 154.648C214.064 155.181 213.846 155.933 213.846 156.904C213.846 157.896 214.064 158.669 214.502 159.224C214.95 159.768 215.568 160.04 216.358 160.04ZM80.7961 181.112C79.4415 181.112 78.3695 180.765 77.5801 180.072L78.0121 179.112C78.4495 179.453 78.8921 179.699 79.3401 179.848C79.7881 179.997 80.2895 180.072 80.8441 180.072C81.4521 180.072 81.9108 179.971 82.2201 179.768C82.5401 179.555 82.7001 179.251 82.7001 178.856C82.7001 178.536 82.5935 178.28 82.3801 178.088C82.1668 177.896 81.8148 177.747 81.3241 177.64L79.9641 177.32C79.2921 177.171 78.7695 176.904 78.3961 176.52C78.0335 176.136 77.8521 175.677 77.8521 175.144C77.8521 174.44 78.1348 173.869 78.7001 173.432C79.2655 172.984 80.0121 172.76 80.9401 172.76C81.5055 172.76 82.0388 172.851 82.5401 173.032C83.0415 173.213 83.4628 173.475 83.8041 173.816L83.3721 174.76C82.6148 174.131 81.8041 173.816 80.9401 173.816C80.3641 173.816 79.9161 173.928 79.5961 174.152C79.2868 174.365 79.1321 174.669 79.1321 175.064C79.1321 175.395 79.2281 175.656 79.4201 175.848C79.6228 176.04 79.9428 176.189 80.3801 176.296L81.7401 176.632C82.4868 176.803 83.0415 177.069 83.4041 177.432C83.7668 177.784 83.9481 178.248 83.9481 178.824C83.9481 179.517 83.6655 180.072 83.1001 180.488C82.5348 180.904 81.7668 181.112 80.7961 181.112ZM92.7496 172.952V181H91.4856V179.608C91.2296 180.099 90.8723 180.472 90.4136 180.728C89.955 180.984 89.4376 181.112 88.8616 181.112C87.9123 181.112 87.1923 180.845 86.7016 180.312C86.211 179.779 85.9656 178.989 85.9656 177.944V172.952H87.2616V177.912C87.2616 178.637 87.411 179.171 87.7096 179.512C88.0083 179.853 88.4616 180.024 89.0696 180.024C89.7843 180.024 90.3603 179.795 90.7976 179.336C91.235 178.867 91.4536 178.253 91.4536 177.496V172.952H92.7496ZM98.624 181.112C97.8453 181.112 97.1627 180.941 96.576 180.6C96 180.259 95.552 179.779 95.232 179.16C94.9227 178.531 94.768 177.8 94.768 176.968C94.768 176.136 94.928 175.405 95.248 174.776C95.568 174.136 96.0213 173.64 96.608 173.288C97.2053 172.936 97.8987 172.76 98.688 172.76C99.232 172.76 99.7547 172.856 100.256 173.048C100.768 173.229 101.189 173.485 101.52 173.816L101.088 174.776C100.683 174.456 100.288 174.221 99.904 174.072C99.5307 173.923 99.1467 173.848 98.752 173.848C97.9307 173.848 97.2853 174.125 96.816 174.68C96.3467 175.224 96.112 175.987 96.112 176.968C96.112 177.939 96.3413 178.696 96.8 179.24C97.2693 179.773 97.92 180.04 98.752 180.04C99.1467 180.04 99.5307 179.965 99.904 179.816C100.288 179.667 100.683 179.432 101.088 179.112L101.52 180.072C101.179 180.392 100.747 180.648 100.224 180.84C99.712 181.021 99.1787 181.112 98.624 181.112ZM106.546 181.112C105.767 181.112 105.085 180.941 104.498 180.6C103.922 180.259 103.474 179.779 103.154 179.16C102.845 178.531 102.69 177.8 102.69 176.968C102.69 176.136 102.85 175.405 103.17 174.776C103.49 174.136 103.943 173.64 104.53 173.288C105.127 172.936 105.821 172.76 106.61 172.76C107.154 172.76 107.677 172.856 108.178 173.048C108.69 173.229 109.111 173.485 109.442 173.816L109.01 174.776C108.605 174.456 108.21 174.221 107.826 174.072C107.453 173.923 107.069 173.848 106.674 173.848C105.853 173.848 105.207 174.125 104.738 174.68C104.269 175.224 104.034 175.987 104.034 176.968C104.034 177.939 104.263 178.696 104.722 179.24C105.191 179.773 105.842 180.04 106.674 180.04C107.069 180.04 107.453 179.965 107.826 179.816C108.21 179.667 108.605 179.432 109.01 179.112L109.442 180.072C109.101 180.392 108.669 180.648 108.146 180.84C107.634 181.021 107.101 181.112 106.546 181.112ZM117.828 176.936H111.924C111.934 177.96 112.169 178.733 112.628 179.256C113.097 179.779 113.774 180.04 114.66 180.04C115.598 180.04 116.462 179.725 117.252 179.096L117.684 180.04C117.332 180.371 116.878 180.632 116.324 180.824C115.78 181.016 115.22 181.112 114.644 181.112C113.385 181.112 112.398 180.744 111.684 180.008C110.969 179.261 110.612 178.243 110.612 176.952C110.612 176.131 110.772 175.405 111.092 174.776C111.412 174.136 111.86 173.64 112.436 173.288C113.012 172.936 113.668 172.76 114.404 172.76C115.47 172.76 116.308 173.112 116.916 173.816C117.524 174.509 117.828 175.469 117.828 176.696V176.936ZM114.42 173.768C113.748 173.768 113.198 173.971 112.772 174.376C112.356 174.781 112.089 175.352 111.972 176.088H116.66C116.596 175.331 116.372 174.755 115.988 174.36C115.614 173.965 115.092 173.768 114.42 173.768ZM122.515 181.112C121.16 181.112 120.088 180.765 119.299 180.072L119.731 179.112C120.168 179.453 120.611 179.699 121.059 179.848C121.507 179.997 122.008 180.072 122.563 180.072C123.171 180.072 123.63 179.971 123.939 179.768C124.259 179.555 124.419 179.251 124.419 178.856C124.419 178.536 124.312 178.28 124.099 178.088C123.886 177.896 123.534 177.747 123.043 177.64L121.683 177.32C121.011 177.171 120.488 176.904 120.115 176.52C119.752 176.136 119.571 175.677 119.571 175.144C119.571 174.44 119.854 173.869 120.419 173.432C120.984 172.984 121.731 172.76 122.659 172.76C123.224 172.76 123.758 172.851 124.259 173.032C124.76 173.213 125.182 173.475 125.523 173.816L125.091 174.76C124.334 174.131 123.523 173.816 122.659 173.816C122.083 173.816 121.635 173.928 121.315 174.152C121.006 174.365 120.851 174.669 120.851 175.064C120.851 175.395 120.947 175.656 121.139 175.848C121.342 176.04 121.662 176.189 122.099 176.296L123.459 176.632C124.206 176.803 124.76 177.069 125.123 177.432C125.486 177.784 125.667 178.248 125.667 178.824C125.667 179.517 125.384 180.072 124.819 180.488C124.254 180.904 123.486 181.112 122.515 181.112ZM130.452 181.112C129.098 181.112 128.026 180.765 127.236 180.072L127.668 179.112C128.106 179.453 128.548 179.699 128.996 179.848C129.444 179.997 129.946 180.072 130.5 180.072C131.108 180.072 131.567 179.971 131.876 179.768C132.196 179.555 132.356 179.251 132.356 178.856C132.356 178.536 132.25 178.28 132.036 178.088C131.823 177.896 131.471 177.747 130.98 177.64L129.62 177.32C128.948 177.171 128.426 176.904 128.052 176.52C127.69 176.136 127.508 175.677 127.508 175.144C127.508 174.44 127.791 173.869 128.356 173.432C128.922 172.984 129.668 172.76 130.596 172.76C131.162 172.76 131.695 172.851 132.196 173.032C132.698 173.213 133.119 173.475 133.46 173.816L133.028 174.76C132.271 174.131 131.46 173.816 130.596 173.816C130.02 173.816 129.572 173.928 129.252 174.152C128.943 174.365 128.788 174.669 128.788 175.064C128.788 175.395 128.884 175.656 129.076 175.848C129.279 176.04 129.599 176.189 130.036 176.296L131.396 176.632C132.143 176.803 132.698 177.069 133.06 177.432C133.423 177.784 133.604 178.248 133.604 178.824C133.604 179.517 133.322 180.072 132.756 180.488C132.191 180.904 131.423 181.112 130.452 181.112ZM138.758 170.28C138.331 170.28 137.995 170.403 137.75 170.648C137.515 170.883 137.398 171.293 137.398 171.88V172.952H139.366V173.976H137.398V181H136.102V173.976H134.534V172.952H136.102V171.72C136.102 170.877 136.31 170.243 136.726 169.816C137.153 169.379 137.745 169.16 138.502 169.16C138.875 169.16 139.238 169.208 139.59 169.304V170.408C139.291 170.323 139.014 170.28 138.758 170.28ZM147.797 172.952V181H146.533V179.608C146.277 180.099 145.919 180.472 145.461 180.728C145.002 180.984 144.485 181.112 143.909 181.112C142.959 181.112 142.239 180.845 141.749 180.312C141.258 179.779 141.013 178.989 141.013 177.944V172.952H142.309V177.912C142.309 178.637 142.458 179.171 142.757 179.512C143.055 179.853 143.509 180.024 144.117 180.024C144.831 180.024 145.407 179.795 145.845 179.336C146.282 178.867 146.501 178.253 146.501 177.496V172.952H147.797ZM150.295 169.224H151.591V181H150.295V169.224ZM154.107 169.224H155.403V181H154.107V169.224ZM164.992 172.952L161.232 181.736C160.837 182.653 160.341 183.325 159.744 183.752C159.147 184.179 158.411 184.472 157.536 184.632L157.264 183.624C158.021 183.453 158.592 183.224 158.976 182.936C159.371 182.659 159.696 182.227 159.952 181.64L160.272 180.92L156.864 172.952H158.224L160.944 179.592L163.696 172.952H164.992Z" fill="#A6ADB5"/>
</g>
<rect x="47" y="214" width="148" height="40" rx="7" fill="url(#paint0_linear_85:386)"/>
<path d="M66.018 231.548H62.882L63.26 229.7H71.8L71.422 231.548H68.3L66.704 239.5H64.436L66.018 231.548ZM76.2856 239.668C75.3056 239.668 74.4562 239.491 73.7376 239.136C73.0189 238.781 72.4682 238.282 72.0856 237.638C71.7029 236.994 71.5116 236.252 71.5116 235.412C71.5116 234.301 71.7636 233.303 72.2676 232.416C72.7809 231.52 73.4949 230.815 74.4096 230.302C75.3336 229.789 76.3882 229.532 77.5736 229.532C78.5536 229.532 79.4029 229.709 80.1216 230.064C80.8402 230.419 81.3909 230.918 81.7736 231.562C82.1562 232.206 82.3476 232.948 82.3476 233.788C82.3476 234.899 82.0909 235.902 81.5776 236.798C81.0736 237.685 80.3596 238.385 79.4356 238.898C78.5209 239.411 77.4709 239.668 76.2856 239.668ZM76.4816 237.736C77.2002 237.736 77.8302 237.563 78.3716 237.218C78.9129 236.873 79.3282 236.411 79.6176 235.832C79.9069 235.253 80.0516 234.614 80.0516 233.914C80.0516 233.167 79.8182 232.575 79.3516 232.136C78.8849 231.688 78.2269 231.464 77.3776 231.464C76.6589 231.464 76.0289 231.637 75.4876 231.982C74.9462 232.327 74.5309 232.789 74.2416 233.368C73.9522 233.947 73.8076 234.586 73.8076 235.286C73.8076 236.033 74.0409 236.63 74.5076 237.078C74.9742 237.517 75.6322 237.736 76.4816 237.736ZM98.4889 229.7L96.5289 239.5H94.2609L95.0589 235.51H90.6209L89.8229 239.5H87.5409L89.5009 229.7H91.7829L91.0129 233.55H95.4509L96.2209 229.7H98.4889ZM104.21 239.668C103.23 239.668 102.38 239.491 101.662 239.136C100.943 238.781 100.392 238.282 100.01 237.638C99.6269 236.994 99.4356 236.252 99.4356 235.412C99.4356 234.301 99.6876 233.303 100.192 232.416C100.705 231.52 101.419 230.815 102.334 230.302C103.258 229.789 104.312 229.532 105.498 229.532C106.478 229.532 107.327 229.709 108.046 230.064C108.764 230.419 109.315 230.918 109.698 231.562C110.08 232.206 110.272 232.948 110.272 233.788C110.272 234.899 110.015 235.902 109.502 236.798C108.998 237.685 108.284 238.385 107.36 238.898C106.445 239.411 105.395 239.668 104.21 239.668ZM104.406 237.736C105.124 237.736 105.754 237.563 106.296 237.218C106.837 236.873 107.252 236.411 107.542 235.832C107.831 235.253 107.976 234.614 107.976 233.914C107.976 233.167 107.742 232.575 107.276 232.136C106.809 231.688 106.151 231.464 105.302 231.464C104.583 231.464 103.953 231.637 103.412 231.982C102.87 232.327 102.455 232.789 102.166 233.368C101.876 233.947 101.732 234.586 101.732 235.286C101.732 236.033 101.965 236.63 102.432 237.078C102.898 237.517 103.556 237.736 104.406 237.736ZM124.212 229.7L122.266 239.5H120.138L121.286 233.676L117.548 238.464H116.54L114.524 233.62L113.348 239.5H111.22L113.18 229.7H115.028L117.478 235.804L122.266 229.7H124.212ZM128.721 231.52L128.301 233.648H132.851L132.501 235.412H127.937L127.489 237.68H132.837L132.459 239.5H124.871L126.831 229.7H134.237L133.859 231.52H128.721ZM144.711 229.7C145.933 229.7 146.876 229.971 147.539 230.512C148.211 231.044 148.547 231.791 148.547 232.752C148.547 233.573 148.351 234.292 147.959 234.908C147.576 235.515 147.025 235.981 146.307 236.308C145.597 236.635 144.757 236.798 143.787 236.798H141.603L141.071 239.5H138.789L140.749 229.7H144.711ZM143.885 234.95C144.641 234.95 145.224 234.777 145.635 234.432C146.045 234.087 146.251 233.592 146.251 232.948C146.251 232.481 146.092 232.131 145.775 231.898C145.467 231.665 145.019 231.548 144.431 231.548H142.653L141.967 234.95H143.885ZM155.666 237.4H151.102L149.828 239.5H147.406L153.748 229.7H155.988L158.396 239.5H156.128L155.666 237.4ZM155.288 235.678L154.462 231.898L152.152 235.678H155.288ZM167.2 234.446H169.272L168.46 238.478C167.965 238.861 167.391 239.155 166.738 239.36C166.084 239.565 165.408 239.668 164.708 239.668C163.728 239.668 162.874 239.491 162.146 239.136C161.418 238.781 160.853 238.282 160.452 237.638C160.06 236.994 159.864 236.252 159.864 235.412C159.864 234.301 160.12 233.298 160.634 232.402C161.147 231.506 161.87 230.806 162.804 230.302C163.737 229.789 164.81 229.532 166.024 229.532C166.957 229.532 167.764 229.677 168.446 229.966C169.136 230.255 169.692 230.68 170.112 231.24L168.488 232.556C168.161 232.173 167.792 231.898 167.382 231.73C166.971 231.553 166.486 231.464 165.926 231.464C165.179 231.464 164.521 231.632 163.952 231.968C163.382 232.295 162.939 232.747 162.622 233.326C162.314 233.905 162.16 234.553 162.16 235.272C162.16 236.028 162.402 236.63 162.888 237.078C163.382 237.517 164.087 237.736 165.002 237.736C165.58 237.736 166.122 237.619 166.626 237.386L167.2 234.446ZM174.486 231.52L174.066 233.648H178.616L178.266 235.412H173.702L173.254 237.68H178.602L178.224 239.5H170.636L172.596 229.7H180.002L179.624 231.52H174.486Z" fill="#01301B"/>
<rect x="47.5" y="214.5" width="147" height="39" rx="6.5" stroke="white" stroke-opacity="0.3"/>
<path d="M129.767 100.247C129.399 100.247 129.099 100.545 129.105 100.915C129.105 101.283 129.402 101.583 129.773 101.583C130.143 101.583 130.441 101.286 130.441 100.915C130.435 100.545 130.134 100.247 129.767 100.247" stroke="#2ECB84" stroke-width="2" stroke-linecap="round" stroke-linejoin="round"/>
<path d="M114.433 100.247C114.066 100.247 113.765 100.545 113.771 100.915C113.768 101.283 114.068 101.583 114.436 101.583C114.803 101.583 115.104 101.286 115.104 100.915C115.104 100.545 114.803 100.247 114.433 100.247" stroke="#2ECB84" stroke-width="2" stroke-linecap="round" stroke-linejoin="round"/>
<path fill-rule="evenodd" clip-rule="evenodd" d="M135.583 113.25H106.417C99.9737 113.25 94.75 108.026 94.75 101.583V72.4167C94.75 65.9737 99.9737 60.75 106.417 60.75H135.583C142.026 60.75 147.25 65.9737 147.25 72.4167V101.583C147.25 108.026 142.026 113.25 135.583 113.25Z" stroke="#2ECB84" stroke-width="2" stroke-linecap="round" stroke-linejoin="round"/>
<path d="M109.287 77.8857H132.302C133.489 77.8857 134.358 78.9999 134.07 80.152L131.614 89.9812C131.241 91.4745 129.972 92.5712 128.441 92.7257L116.016 93.9682C114.163 94.152 112.469 92.9153 112.087 91.0953L108.103 72.417H104.958" stroke="#2ECB84" stroke-width="2" stroke-linecap="round" stroke-linejoin="round"/>
<defs>
<filter id="filter0_dd_85:386" x="12.3525" y="145.224" width="215.749" height="51.4082" filterUnits="userSpaceOnUse" color-interpolation-filters="sRGB">
<feFlood flood-opacity="0" result="BackgroundImageFix"/>
<feColorMatrix in="SourceAlpha" type="matrix" values="0 0 0 0 0 0 0 0 0 0 0 0 0 0 0 0 0 0 127 0" result="hardAlpha"/>
<feOffset dy="4"/>
<feGaussianBlur stdDeviation="4"/>
<feColorMatrix type="matrix" values="0 0 0 0 0.356863 0 0 0 0 0.407843 0 0 0 0 0.443137 0 0 0 0.24 0"/>
<feBlend mode="normal" in2="BackgroundImageFix" result="effect1_dropShadow_85:386"/>
<feColorMatrix in="SourceAlpha" type="matrix" values="0 0 0 0 0 0 0 0 0 0 0 0 0 0 0 0 0 0 127 0" result="hardAlpha"/>
<feOffset/>
<feGaussianBlur stdDeviation="0.5"/>
<feColorMatrix type="matrix" values="0 0 0 0 0.101961 0 0 0 0 0.12549 0 0 0 0 0.141176 0 0 0 0.32 0"/>
<feBlend mode="normal" in2="effect1_dropShadow_85:386" result="effect2_dropShadow_85:386"/>
<feBlend mode="normal" in="SourceGraphic" in2="effect2_dropShadow_85:386" result="shape"/>
</filter>
<linearGradient id="paint0_linear_85:386" x1="157.084" y1="252.206" x2="149.143" y2="204.989" gradientUnits="userSpaceOnUse">
<stop stop-color="#05D0C2"/>
<stop offset="0.54" stop-color="#2ECB84"/>
<stop offset="1" stop-color="#8CE01D"/>
</linearGradient>
</defs>
</svg>
