<svg width="19" height="17" viewBox="0 0 19 17" fill="none" xmlns="http://www.w3.org/2000/svg">
<path d="M16.1301 2.95692C15.747 2.57367 15.2922 2.26965 14.7916 2.06223C14.291 1.85481 13.7545 1.74805 13.2126 1.74805C12.6707 1.74805 12.1342 1.85481 11.6336 2.06223C11.133 2.26965 10.6782 2.57367 10.2951 2.95692L9.50009 3.75192L8.70509 2.95692C7.93132 2.18315 6.88186 1.74845 5.78759 1.74845C4.69331 1.74845 3.64386 2.18315 2.87009 2.95692C2.09632 3.73069 1.66162 4.78014 1.66162 5.87442C1.66162 6.96869 2.09632 8.01815 2.87009 8.79192L3.66509 9.58692L9.50009 15.4219L15.3351 9.58692L16.1301 8.79192C16.5133 8.40885 16.8174 7.95403 17.0248 7.45343C17.2322 6.95284 17.339 6.41628 17.339 5.87442C17.339 5.33255 17.2322 4.79599 17.0248 4.2954C16.8174 3.79481 16.5133 3.33998 16.1301 2.95692V2.95692Z" stroke="#A6ADB5" stroke-width="1.5" stroke-linecap="round" stroke-linejoin="round"/>
</svg>
