<svg width="24" height="24" viewBox="0 0 24 24" fill="none" xmlns="http://www.w3.org/2000/svg">
<path fill-rule="evenodd" clip-rule="evenodd" d="M15.8018 7.2324L16.5348 6.5004L15.8018 5.7674C15.3998 5.3644 15.3998 4.7054 15.8018 4.3014C16.2048 3.8994 16.8638 3.8994 17.2678 4.3014L17.9998 5.0354L18.7328 4.3014C19.1358 3.8994 19.7948 3.8994 20.1978 4.3014C20.6008 4.7054 20.6008 5.3644 20.1978 5.7674L19.4648 6.5004L20.1978 7.2324C20.6008 7.6354 20.6008 8.2944 20.1978 8.6984C19.7948 9.1004 19.1358 9.1004 18.7328 8.6984L17.9998 7.9644L17.2678 8.6984C16.8638 9.1004 16.2048 9.1004 15.8018 8.6984C15.3998 8.2944 15.3998 7.6354 15.8018 7.2324ZM17.4008 20.0004C10.0118 20.0004 3.99979 13.9884 3.99979 6.5994C3.99979 5.1664 5.16579 4.0004 6.59979 4.0004C6.70879 4.0004 6.81779 4.0064 6.92779 4.0214L7.98879 8.6414C7.81279 8.7334 7.62079 8.8334 7.44379 8.9264C6.57279 9.3814 5.94379 9.7114 6.26579 10.5134C7.44079 13.8604 10.1398 16.5594 13.4468 17.7194C14.2938 18.0584 14.6178 17.4264 15.0728 16.5564C15.1668 16.3784 15.2668 16.1874 15.3588 16.0114L19.9788 17.0724C19.9928 17.1794 19.9998 17.2894 19.9998 17.4004C19.9998 18.8344 18.8338 20.0004 17.4008 20.0004ZM21.9358 16.6384C21.8958 16.3884 21.8328 16.1434 21.7508 15.9084C21.6388 15.5834 21.3658 15.3384 21.0308 15.2614L15.0668 13.8924C14.7378 13.8194 14.3938 13.9124 14.1508 14.1454C14.0078 14.2824 14.0048 14.2854 13.3548 15.5274C11.2148 14.5524 9.46579 12.8064 8.47479 10.6444C9.71379 9.9954 9.71779 9.9924 9.85479 9.8494C10.0878 9.6064 10.1828 9.2614 10.1078 8.9334L8.73879 2.9694C8.66079 2.6334 8.41679 2.3614 8.09179 2.2494C7.85479 2.1664 7.60879 2.1044 7.36479 2.0654C7.11579 2.0224 6.86079 2.0004 6.59979 2.0004C4.06379 2.0004 1.99979 4.0634 1.99979 6.5994C1.99979 15.0914 8.90779 22.0004 17.4008 22.0004C19.9368 22.0004 21.9998 19.9364 21.9998 17.4004C21.9998 17.1414 21.9778 16.8864 21.9358 16.6384Z" fill="#75A6D7"/>
</svg>
