<svg width="24" height="24" viewBox="0 0 24 24" fill="none" xmlns="http://www.w3.org/2000/svg">
<path fill-rule="evenodd" clip-rule="evenodd" d="M18 17H13C12.449 17 12 16.551 12 16V7.081L15.375 9.781C15.56 9.928 15.78 10 16 10C16.292 10 16.583 9.872 16.781 9.625C17.126 9.193 17.056 8.564 16.625 8.219L11.625 4.219C11.259 3.927 10.741 3.927 10.375 4.219L5.375 8.219C4.944 8.564 4.874 9.193 5.219 9.625C5.563 10.056 6.194 10.125 6.625 9.781L10 7.081V16C10 17.654 11.346 19 13 19H18C18.552 19 19 18.552 19 18C19 17.448 18.552 17 18 17Z" fill="#75A6D7"/>
</svg>
