<svg width="24" height="24" viewBox="0 0 24 24" fill="none" xmlns="http://www.w3.org/2000/svg">
<path fill-rule="evenodd" clip-rule="evenodd" d="M20 9.4004L17.191 12.0004L20 14.5994V9.4004ZM22 8.6294V15.3704C22 16.0194 21.621 16.5884 21.012 16.8544C20.788 16.9524 20.553 17.0004 20.319 17.0004C20.113 17.0004 19.91 16.9624 19.718 16.8894L15 12.1714V8.0004C15 7.4484 14.552 7.0004 14 7.0004H9.828L7.828 5.0004H14C15.654 5.0004 17 6.3454 17 8.0004V9.4514L19.161 7.4514C19.66 6.9914 20.386 6.8734 21.012 7.1454C21.621 7.4114 22 7.9804 22 8.6294ZM14 17.0004H5C4.448 17.0004 4 16.5514 4 16.0004V8.0004C4 7.6794 4.161 7.4074 4.396 7.2234L2.974 5.8014C2.379 6.3504 2 7.1294 2 8.0004V16.0004C2 17.6544 3.346 19.0004 5 19.0004H14C14.616 19.0004 15.188 18.8124 15.665 18.4934L14.143 16.9704C14.094 16.9784 14.051 17.0004 14 17.0004ZM20.707 19.2934C21.098 19.6834 21.098 20.3164 20.707 20.7074C20.512 20.9024 20.256 21.0004 20 21.0004C19.744 21.0004 19.488 20.9024 19.293 20.7074L16.386 17.7994L14.931 16.3444L5.586 7.0004L3.826 5.2404L3.293 4.7074C2.902 4.3164 2.902 3.6834 3.293 3.2934C3.684 2.9024 4.316 2.9024 4.707 3.2934L6.414 5.0004L8.414 7.0004L15 13.5864L17 15.5864L20.707 19.2934Z" fill="#75A6D7"/>
</svg>
