<svg width="24" height="24" viewBox="0 0 24 24" fill="none" xmlns="http://www.w3.org/2000/svg">
<path fill-rule="evenodd" clip-rule="evenodd" d="M20 17.4004C20 17.2894 19.993 17.1794 19.979 17.0724L15.358 16.0114C15.267 16.1874 15.167 16.3794 15.073 16.5564C14.618 17.4264 14.292 18.0584 13.446 17.7194C10.14 16.5594 7.441 13.8604 6.266 10.5134C5.909 9.7294 6.589 9.3734 7.451 8.9224C7.626 8.8314 7.815 8.7324 7.988 8.6414L6.928 4.0214C6.817 4.0064 6.709 4.0004 6.6 4.0004C5.167 4.0004 4 5.1664 4 6.5994C4 13.9884 10.011 20.0004 17.4 20.0004C18.834 20.0004 20 18.8344 20 17.4004ZM21.936 16.6384C21.978 16.8864 22 17.1414 22 17.4004C22 19.9364 19.937 22.0004 17.4 22.0004C8.909 22.0004 2 15.0914 2 6.5994C2 4.0634 4.063 2.0004 6.6 2.0004C6.86 2.0004 7.117 2.0224 7.366 2.0654C7.609 2.1044 7.854 2.1664 8.091 2.2484C8.417 2.3614 8.661 2.6334 8.738 2.9694L10.107 8.9334C10.183 9.2614 10.088 9.6064 9.854 9.8494C9.718 9.9924 9.715 9.9954 8.475 10.6434C9.479 12.8184 11.224 14.5564 13.354 15.5274C14.005 14.2864 14.008 14.2824 14.15 14.1454C14.394 13.9124 14.737 13.8194 15.066 13.8924L21.03 15.2614C21.366 15.3384 21.639 15.5834 21.751 15.9084C21.833 16.1434 21.896 16.3884 21.936 16.6384ZM13 4.0004C16.859 4.0004 20 7.1404 20 11.0004C20 11.5524 20.447 12.0004 21 12.0004C21.553 12.0004 22 11.5524 22 11.0004C22 6.0374 17.963 2.0004 13 2.0004C12.448 2.0004 12 2.4474 12 3.0004C12 3.5524 12.448 4.0004 13 4.0004ZM12 7.0004C12 6.4474 12.448 6.0004 13 6.0004C15.757 6.0004 18 8.2434 18 11.0004C18 11.5524 17.553 12.0004 17 12.0004C16.447 12.0004 16 11.5524 16 11.0004C16 9.3454 14.654 8.0004 13 8.0004C12.448 8.0004 12 7.5524 12 7.0004Z" fill="#75A6D7"/>
</svg>
