<svg width="1601" height="422" viewBox="0 0 1601 422" fill="none" xmlns="http://www.w3.org/2000/svg">
<path fill-rule="evenodd" clip-rule="evenodd" d="M1598 223C1598 222.448 1597.55 222 1597 222C1596.45 222 1596 222.448 1596 223V225.297L1591.76 220.349C1591.44 219.979 1590.91 219.891 1590.49 220.143L1586.22 222.702L1581.77 217.36C1581.42 216.937 1580.79 216.877 1580.36 217.232C1579.94 217.585 1579.88 218.216 1580.23 218.64L1585.23 224.64C1585.55 225.019 1586.09 225.112 1586.52 224.857L1590.79 222.292L1594.83 227H1592C1591.45 227 1591 227.448 1591 228C1591 228.552 1591.45 229 1592 229H1597C1597.12 229 1597.25 228.973 1597.36 228.926C1597.41 228.907 1597.45 228.875 1597.5 228.85C1597.55 228.819 1597.6 228.8 1597.65 228.759C1597.66 228.751 1597.66 228.739 1597.67 228.73C1597.73 228.68 1597.77 228.619 1597.81 228.558C1597.84 228.51 1597.88 228.468 1597.9 228.416C1597.93 228.363 1597.94 228.304 1597.95 228.247C1597.97 228.177 1597.99 228.109 1597.99 228.037C1597.99 228.024 1598 228.013 1598 228V223Z" fill="#75A6D7"/>
<path fill-rule="evenodd" clip-rule="evenodd" d="M452.743 18.9999C450.957 18.9999 449.306 18.0469 448.413 16.4999L440.33 2.5C438.406 -0.833336 433.594 -0.833332 431.67 2.5L423.587 16.4999C422.694 18.0469 421.043 18.9999 419.257 18.9999H8C3.58172 18.9999 0 22.5816 0 26.9999V414C0 418.418 3.58171 422 7.99999 422H472C476.418 422 480 418.418 480 414V26.9999C480 22.5816 476.418 18.9999 472 18.9999H452.743Z" fill="#C4C4C4"/>
</svg>
