<svg width="24" height="24" viewBox="0 0 24 24" fill="none" xmlns="http://www.w3.org/2000/svg">
<path fill-rule="evenodd" clip-rule="evenodd" d="M12.0029 4C9.8209 4 7.7829 4.861 6.2629 6.426C4.7429 7.989 3.9409 10.052 4.0039 12.235C4.1209 16.339 7.5529 19.818 11.6529 19.992C16.0349 20.165 19.7719 16.78 19.9949 12.419C20.0019 12.291 20.0009 11.726 19.9989 11.2H12.9969V12.782H18.3059L17.9009 14.08C17.1799 16.394 15.3519 17.982 13.0109 18.328C11.2649 18.581 9.4459 18.082 8.0229 16.945C6.6259 15.832 5.7499 14.214 5.6179 12.505C5.4799 10.698 6.0769 8.976 7.3029 7.653C8.9689 5.853 11.6619 5.16 13.9699 5.909L14.7429 4.48C13.8679 4.161 12.9489 4 12.0029 4ZM11.9959 21.999C11.8549 21.999 11.7119 21.996 11.5689 21.99C6.4409 21.773 2.1509 17.423 2.0039 12.292C1.9269 9.564 2.9289 6.986 4.8279 5.032C6.7289 3.077 9.2759 2 12.0029 2C13.4369 2 14.8229 2.298 16.1219 2.885C16.4829 3.048 16.7639 3.358 16.8909 3.736C17.0199 4.119 16.9839 4.543 16.7919 4.898L15.4999 7.282C15.1489 7.934 14.3569 8.214 13.6649 7.925C12.0119 7.252 9.9919 7.692 8.7699 9.012C7.9279 9.921 7.5169 11.107 7.6119 12.351C7.7019 13.509 8.3059 14.613 9.2699 15.382C10.2639 16.175 11.5259 16.528 12.7179 16.35C13.8179 16.187 14.7299 15.635 15.3499 14.782H12.4469C11.6479 14.782 10.9969 14.132 10.9969 13.332V10.65C10.9969 9.851 11.6479 9.2 12.4469 9.2H20.5469C21.3399 9.2 21.9909 9.845 21.9969 10.638C21.9999 11.269 22.0019 12.336 21.9929 12.52C21.7199 17.832 17.2769 21.999 11.9959 21.999Z" fill="#75A6D7"/>
</svg>
