
<svg width="73" height="64" viewBox="0 0 73 64" fill="none" xmlns="http://www.w3.org/2000/svg">
<path d="M58 0V23.7778C58 27.9511 56.6791 28.6977 54.436 31.8578L54.4536 3.55556H34.2835C25.6037 3.55556 18.5464 10.6357 18.5464 19.3334V36.4444H38.7174C40.6342 36.4474 42.5351 36.0963 44.3251 35.4089V39.1645C42.5074 39.7197 40.6176 40.0012 38.7174 40H15V19.3336C15 8.65809 23.6311 0.00112836 34.2835 0.00112836L58 0ZM34.7696 32.8165V7.63154H33.2456C26.9959 7.63154 21.9116 12.7292 21.9116 18.9949V32.8169H25.1962L25.2037 18.9949C25.2037 15.1582 27.8905 11.9388 31.4766 11.1287L31.4693 32.8169L34.7696 32.8165ZM50.8979 18.9956C50.8979 12.729 45.8132 7.63116 39.5627 7.63116H38.0428V32.8179H41.3409L41.3321 11.1289C44.9184 11.9378 47.6048 15.1601 47.6048 18.9956L47.6091 37.8223C48.7764 37.2139 49.8785 36.4871 50.8979 35.6533V18.9956Z" fill="#34D399"/>
<path d="M0.000548963 50H1.73212L5.49031 61.2587C6.72976 57.5591 8.04818 53.6992 9.26843 50H11V63.9989H9.42564V54.3205C8.38363 57.4603 7.2418 60.8998 6.19851 64H4.76218L1.59355 54.3994V63.9989H0L0.000548963 50Z" fill="white"/>
<path d="M17.5763 50V59.969C17.5763 61.6769 18.2383 62.5108 19.9707 62.5108C21.7031 62.5108 22.423 61.6769 22.423 59.969V50H24V59.969C24 62.8285 22.423 64 19.9707 64C17.5184 64 16 62.8289 16 59.969V50H17.5763Z" fill="white"/>
<path d="M30.5765 50V59.969C30.5765 61.6769 31.2383 62.5108 32.9709 62.5108C34.7034 62.5108 35.423 61.6769 35.423 59.969V50H37V59.969C37 62.8285 35.423 64 32.9709 64C30.5188 64 29 62.8289 29 59.969V50H30.5765Z" fill="white"/>
<path d="M41 50H49V51.5002H45.8645V64H44.1136V51.5002H41.0002L41 50Z" fill="white"/>
<path d="M55.4695 50C59.4588 50 60 53.1551 60 57.0003C60 60.8455 59.4588 64 55.4695 64C51.4801 64 51 60.8453 51 57.0003C51 53.1553 51.481 50 55.4695 50ZM55.4695 62.5213C58.0766 62.5213 58.3765 60.3523 58.3765 57.0003C58.3765 53.6482 58.0759 51.4791 55.4695 51.4791C52.863 51.4791 52.6234 53.6482 52.6234 57.0003C52.6234 60.3523 52.8638 62.5213 55.4695 62.5213Z" fill="white"/>
<path d="M64.0004 59.4843H65.7062V60.1356C65.7062 61.3976 66.4954 62.5213 68.7774 62.5213C70.9956 62.5213 71.273 61.1611 71.273 60.4904C71.273 58.972 69.8224 58.4396 68.2656 57.8873C66.304 57.1776 64.213 56.428 64.213 53.7072C64.213 52.6619 64.8534 50 68.5854 50C72.1902 50 72.7876 52.7803 72.7876 53.7856V54.4171H71.0596V53.7856C71.0596 52.5044 70.2702 51.4791 68.5854 51.4791C66.986 51.4791 65.941 52.3663 65.941 53.7072C65.941 55.2843 67.434 55.8365 69.0122 56.3888C70.953 57.0792 73 57.8083 73 60.4904C73 62.1465 72.0404 64 68.7772 64C64.0848 64 64 60.6872 64 60.1347L64.0004 59.4843Z" fill="white"/>
</svg>
