<svg width="20" height="20" viewBox="0 0 20 20" fill="none" xmlns="http://www.w3.org/2000/svg">
<path d="M9.1665 4.16667H17.4998" stroke="#2ECB84" stroke-width="1.5" stroke-linecap="round" stroke-linejoin="round"/>
<path d="M9.1665 10H17.4998" stroke="#2ECB84" stroke-width="1.5" stroke-linecap="round" stroke-linejoin="round"/>
<path d="M9.1665 15.8333H17.4998" stroke="#2ECB84" stroke-width="1.5" stroke-linecap="round" stroke-linejoin="round"/>
<path fill-rule="evenodd" clip-rule="evenodd" d="M5 5.83333H3.33333C2.87333 5.83333 2.5 5.46 2.5 5V3.33333C2.5 2.87333 2.87333 2.5 3.33333 2.5H5C5.46 2.5 5.83333 2.87333 5.83333 3.33333V5C5.83333 5.46 5.46 5.83333 5 5.83333Z" stroke="#2ECB84" stroke-width="1.5" stroke-linecap="round" stroke-linejoin="round"/>
<path fill-rule="evenodd" clip-rule="evenodd" d="M5 11.6667H3.33333C2.87333 11.6667 2.5 11.2933 2.5 10.8333V9.16668C2.5 8.70668 2.87333 8.33334 3.33333 8.33334H5C5.46 8.33334 5.83333 8.70668 5.83333 9.16668V10.8333C5.83333 11.2933 5.46 11.6667 5 11.6667Z" stroke="#2ECB84" stroke-width="1.5" stroke-linecap="round" stroke-linejoin="round"/>
<path fill-rule="evenodd" clip-rule="evenodd" d="M5 17.5H3.33333C2.87333 17.5 2.5 17.1267 2.5 16.6667V15C2.5 14.54 2.87333 14.1667 3.33333 14.1667H5C5.46 14.1667 5.83333 14.54 5.83333 15V16.6667C5.83333 17.1267 5.46 17.5 5 17.5Z" stroke="#2ECB84" stroke-width="1.5" stroke-linecap="round" stroke-linejoin="round"/>
</svg>
