<svg width="24" height="24" viewBox="0 0 24 24" fill="none" xmlns="http://www.w3.org/2000/svg">
<path fill-rule="evenodd" clip-rule="evenodd" d="M8.5557 16C8.2497 16 7.9997 15.751 7.9997 15.444V8H15.4447C15.7507 8 15.9997 8.249 15.9997 8.556V16H8.5557ZM20.9997 16H17.9997V8.556C17.9997 7.146 16.8537 6 15.4447 6H7.9997V3C7.9997 2.447 7.5527 2 6.9997 2C6.4477 2 5.9997 2.447 5.9997 3V6H2.9997C2.4477 6 1.9997 6.447 1.9997 7C1.9997 7.553 2.4477 8 2.9997 8H5.9997V15.444C5.9997 16.854 7.1467 18 8.5557 18H15.9997V21C15.9997 21.553 16.4477 22 16.9997 22C17.5527 22 17.9997 21.553 17.9997 21V18H20.9997C21.5527 18 21.9997 17.553 21.9997 17C21.9997 16.447 21.5527 16 20.9997 16Z" fill="#75A6D7"/>
</svg>
