<svg width="24" height="24" viewBox="0 0 24 24" fill="none" xmlns="http://www.w3.org/2000/svg">
<path fill-rule="evenodd" clip-rule="evenodd" d="M10.1866 6.75493L11.2033 6.38894C11.7178 6.20369 12.2809 6.20369 12.7954 6.38894L13.8136 6.75567C14.3751 6.958 14.7495 7.49051 14.75 8.08793V9.22125C14.75 10.3307 13.8493 11.0553 12.5753 11.6261C12.2096 11.7913 11.7904 11.7913 11.4266 11.627C10.1526 11.0561 9.25 10.3297 9.25 9.22125V8.08809C9.24987 7.49074 9.62445 6.9575 10.1866 6.75493ZM13.25 9.22125V8.146L12.2873 7.80026C12.1012 7.73325 11.8975 7.73325 11.7114 7.80026L10.749 8.146L10.75 9.22125C10.75 9.46267 11.2306 9.86673 11.8874 10.1868L11.999 10.239L12.1144 10.186C12.7202 9.89085 13.1752 9.52489 13.2416 9.27987L13.25 9.22125Z" fill="#01301B"/>
<path fill-rule="evenodd" clip-rule="evenodd" d="M6 2.25H18C19.5188 2.25 20.75 3.48122 20.75 5V19C20.75 20.5188 19.5188 21.75 18 21.75H6C4.48122 21.75 3.25 20.5188 3.25 19V5C3.25 3.48122 4.48122 2.25 6 2.25ZM18 3.75H6C5.30964 3.75 4.75 4.30964 4.75 5V19C4.75 19.6904 5.30964 20.25 6 20.25H18C18.6904 20.25 19.25 19.6904 19.25 19V5C19.25 4.30964 18.6904 3.75 18 3.75Z" fill="#01301B"/>
<path d="M15 13.25C15.4142 13.25 15.75 13.5858 15.75 14C15.75 14.3797 15.4678 14.6935 15.1018 14.7432L15 14.75H9C8.58579 14.75 8.25 14.4142 8.25 14C8.25 13.6203 8.53215 13.3065 8.89823 13.2568L9 13.25H15Z" fill="#01301B"/>
<path d="M13.5 16.25C13.9142 16.25 14.25 16.5858 14.25 17C14.25 17.3797 13.9678 17.6935 13.6018 17.7432L13.5 17.75H10.5C10.0858 17.75 9.75 17.4142 9.75 17C9.75 16.6203 10.0322 16.3065 10.3982 16.2568L10.5 16.25H13.5Z" fill="#01301B"/>
</svg>
